<svg id="Lager_1" data-name="Lager 1" xmlns="http://www.w3.org/2000/svg" viewBox="0 0 1561 1561"><defs><style>.cls-1{fill:#ed1c24;}.cls-1,.cls-2,.cls-3{stroke:#000;stroke-miterlimit:10;stroke-width:20px;}.cls-2{fill:none;}.cls-3{fill:#29abe2;}.cls-4{font-size:320px;font-family:MyriadPro-Regular, Myriad Pro;}</style></defs><title>Fiende_3_Kemi</title><circle class="cls-1" cx="781.5" cy="752.5" r="256"/><path class="cls-2" d="M1407.8,624.19" transform="translate(-219 -269)"/><path class="cls-2" d="M1407.8,624.19A567.11,567.11,0,0,1,1569,1021c0,314.25-254.75,569-569,569s-569-254.75-569-569,254.75-569,569-569a568,568,0,0,1,190.23,32.58" transform="translate(-219 -269)"/><circle class="cls-3" cx="1089" cy="273" r="131"/><circle class="cls-3" cx="387" cy="1163" r="131"/><text class="cls-4" transform="translate(667.73 862.12)">Li</text><path class="cls-2" d="M1190.23,484.58" transform="translate(-219 -269)"/><path class="cls-2" d="M1409,625.43" transform="translate(-219 -269)"/><line class="cls-2" x1="1037" y1="273" x2="1153" y2="273"/><line class="cls-2" x1="329" y1="1163" x2="445" y2="1163"/><circle class="cls-2" cx="780.5" cy="780.5" r="770.5"/><circle class="cls-3" cx="1384" cy="1259" r="131"/><line class="cls-2" x1="1332" y1="1259" x2="1448" y2="1259"/></svg>