<svg id="Lager_1" data-name="Lager 1" xmlns="http://www.w3.org/2000/svg" viewBox="0 0 1158 1199"><defs><style>.cls-1{fill:#ed1c24;}.cls-1,.cls-2,.cls-3{stroke:#000;stroke-miterlimit:10;stroke-width:20px;}.cls-2{fill:none;}.cls-3{fill:#29abe2;}.cls-4{font-size:320px;font-family:MyriadPro-Regular, Myriad Pro;}</style></defs><title>Fiende_2_Kemi</title><circle class="cls-1" cx="579.5" cy="620.5" r="256"/><path class="cls-2" d="M1407.8,624.19" transform="translate(-421 -401)"/><path class="cls-2" d="M1407.8,624.19A567.11,567.11,0,0,1,1569,1021c0,314.25-254.75,569-569,569s-569-254.75-569-569,254.75-569,569-569a568,568,0,0,1,190.23,32.58" transform="translate(-421 -401)"/><circle class="cls-3" cx="887" cy="141" r="131"/><circle class="cls-3" cx="185" cy="1031" r="131"/><text class="cls-4" transform="translate(394.21 730.12)">He</text><path class="cls-2" d="M1190.23,484.58" transform="translate(-421 -401)"/><path class="cls-2" d="M1409,625.43" transform="translate(-421 -401)"/><line class="cls-2" x1="835" y1="141" x2="951" y2="141"/><line class="cls-2" x1="127" y1="1031" x2="243" y2="1031"/></svg>